:FULLY-SPECIFIED
:FORCE-ALL-JOINTS-BE-3DOF
:DEGREES
306
root -0.848063 15.4624 -36.2465 14.7851 66.1784 12.2326
lfemur -19.8715 21.615 -23.8892
ltibia 56.4995 -0 0
lfoot -28.4861 29.7967 0.205587
ltoes 3.35144 -0 0
rfemur -39.0086 -10.9826 15.0649
rtibia 81.6909 -0 0
rfoot -11.626 -21.7158 -0.637139
rtoes -25.035 0 0
lowerback 17.8258 -0.916854 -6.39165
upperback -1.43028 -2.18655 3.12262
thorax -11.115 -0.498286 7.75304
lowerneck -6.86019 4.56694 1.76673
upperneck 5.57746 6.37812 -5.39377
head 3.05897 2.99636 -1.80424
lclavicle -7.69297e-14 -5.56597e-15 0
lhumerus 32.9764 -9.11077 64.3681
lradius 9.1515 -0 0
lwrist -65.4035 0 0
lhand -22.3807 38.7924 0.195807
lfingers 7.12502 -0 0
lthumb 4.04323 68.7614 0.197076
rclavicle -7.69297e-14 -5.56597e-15 0
rhumerus -68.1824 15.1728 -94.8737
rradius 144.552 -0 0
rwrist -79.4703 0 0
rhand 58.3824 -6.92628 -4.87709
rfingers 7.12502 -0 0
rthumb 78.3003 -11.926 -7.97089
307
root -0.733631 15.4469 -36.2089 15.0777 66.5132 13.0451
lfemur -19.4546 20.5272 -24.0026
ltibia 56.423 -0 0
lfoot -28.0987 29.4482 0.182771
ltoes 2.47438 -0 0
rfemur -40.2779 -10.8057 15.4058
rtibia 82.6006 -0 0
rfoot -11.9775 -20.6774 -0.724443
rtoes -24.5983 0 0
lowerback 18.3738 -0.912267 -6.82897
upperback -1.32397 -2.31552 3.04648
thorax -11.2733 -0.528871 7.96461
lowerneck -6.77693 4.51093 1.70266
upperneck 5.52575 6.29266 -5.2133
head 2.99301 2.95994 -1.74617
lclavicle -7.69297e-14 -5.56597e-15 0
lhumerus 35.0867 -11.6815 64.1447
lradius 10.2905 -0 0
lwrist -64.3241 0 0
lhand -22.9839 38.38 0.184989
lfingers 7.12502 -0 0
lthumb 3.46109 68.3685 0.188207
rclavicle -7.69297e-14 -5.56597e-15 0
rhumerus -68.2441 16.5697 -95.4017
rradius 145.86 -0 0
rwrist -78.2883 0 0
rhand 57.4284 -7.09362 -4.78021
rfingers 7.12502 -0 0
rthumb 77.5865 -13.1354 -7.68992
308
root -0.6192 15.4313 -36.1713 15.4385 66.8975 13.9295
lfemur -18.9656 19.358 -24.0714
ltibia 56.3353 -0 0
lfoot -27.71 29.1038 0.159697
ltoes 1.5348 -0 0
rfemur -41.5952 -10.5977 15.6929
rtibia 83.3797 -0 0
rfoot -12.2777 -19.4935 -0.78015
rtoes -24.0049 0 0
lowerback 18.9082 -0.879382 -7.27188
upperback -1.21446 -2.4142 2.95234
thorax -11.4261 -0.545529 8.15176
lowerneck -6.6815 4.40769 1.59997
upperneck 5.46365 6.14382 -4.98963
head 2.92508 2.89334 -1.66885
lclavicle -7.69297e-14 -5.56597e-15 0
lhumerus 36.8604 -14.5059 63.9027
lradius 11.8774 -0 0
lwrist -62.694 0 0
lhand -23.5359 37.9706 0.169095
lfingers 7.12502 -0 0
lthumb 2.92826 67.976 0.174281
rclavicle -7.69297e-14 -5.56597e-15 0
rhumerus -67.8489 18.1432 -95.811
rradius 146.596 -0 0
rwrist -76.668 0 0
rhand 56.0682 -7.35115 -4.57665
rfingers 7.12502 -0 0
rthumb 76.5173 -14.5386 -7.23507
309
root -0.504768 15.4157 -36.1337 15.9249 67.392 14.9508
lfemur -18.3604 18.1003 -24.0943
ltibia 56.215 -0 0
lfoot -27.3338 28.7801 0.137083
ltoes 0.539305 -0 0
rfemur -42.9716 -10.3483 15.9088
rtibia 84.0167 -0 0
rfoot -12.4962 -18.1451 -0.798671
rtoes -23.2242 0 0
lowerback 19.4265 -0.815733 -7.73126
upperback -1.0995 -2.48189 2.83784
thorax -11.5707 -0.547613 8.31795
lowerneck -6.575 4.24051 1.44774
upperneck 5.39035 5.90944 -4.7125
head 2.85546 2.7857 -1.56757
lclavicle -7.69297e-14 -5.56597e-15 0
lhumerus 38.2195 -17.5692 63.6778
lradius 13.9014 -0 0
lwrist -60.4698 0 0
lhand -24.0205 37.5649 0.14892
lfingers 7.12502 -0 0
lthumb 2.46042 67.584 0.155918
rclavicle -7.69297e-14 -5.56597e-15 0
rhumerus -66.9069 19.8947 -96.0466
rradius 146.721 -0 0
rwrist -74.608 0 0
rhand 54.2838 -7.70023 -4.26919
rfingers 7.12502 -0 0
rthumb 75.069 -16.1352 -6.61883
310
root -0.390336 15.4002 -36.0961 16.6112 68.0558 16.19
lfemur -17.5963 16.7465 -24.0727
ltibia 56.0404 -0 0
lfoot -26.9834 28.4935 0.115287
ltoes -0.505472 0 0
rfemur -44.418 -10.0483 16.0352
rtibia 84.5005 -0 0
rfoot -12.6019 -16.6137 -0.776302
rtoes -22.2258 0 0
lowerback 19.9261 -0.718704 -8.21802
upperback -0.976885 -2.51784 2.70061
thorax -11.7041 -0.534468 8.46666
lowerneck -6.45823 3.99274 1.23495
upperneck 5.30455 5.56743 -4.37163
head 2.78435 2.62617 -1.43765
lclavicle -7.69297e-14 -5.56597e-15 0
lhumerus 39.0765 -20.8582 63.5218
lradius 16.3514 -0 0
lwrist -57.6083 0 0
lhand -24.4214 37.1637 0.12549
lfingers 7.12502 -0 0
lthumb 2.07324 67.1925 0.133953
rclavicle -7.69297e-14 -5.56597e-15 0
rhumerus -65.3184 21.8205 -96.0408
rradius 146.193 -0 0
rwrist -72.1069 0 0
rhand 52.0563 -8.14464 -3.86278
rfingers 7.12502 -0 0
rthumb 73.2169 -17.9281 -5.85847
311
root -0.275905 15.3846 -36.0585 17.6001 68.9456 17.7569
lfemur -16.6313 15.289 -24.0109
ltibia 55.79 -0 0
lfoot -26.6724 28.2605 0.0943668
ltoes -1.59292 0 0
rfemur -45.9457 -9.68958 16.0531
rtibia 84.8196 -0 0
rfoot -12.5631 -14.8803 -0.711866
rtoes -20.9794 0 0
lowerback 20.4043 -0.585551 -8.74303
upperback -0.84442 -2.52128 2.53831
thorax -11.8235 -0.505426 8.60138
lowerneck -6.33157 3.64781 0.950528
upperneck 5.20426 5.09577 -3.95664
head 2.7118 2.4039 -1.27435
lclavicle -7.69297e-14 -5.56597e-15 0
lhumerus 39.3286 -24.3591 63.5076
lradius 19.2165 -0 0
lwrist -54.0664 0 0
lhand -24.7224 36.7677 0.100052
lfingers 7.12502 -0 0
lthumb 1.7824 66.8016 0.109436
rclavicle -7.69297e-14 -5.56597e-15 0
rhumerus -62.9708 23.9071 -95.7093
rradius 144.972 -0 0
rwrist -69.1633 0 0
rhand 49.3668 -8.69054 -3.36485
rfingers 7.12502 -0 0
rthumb 70.9354 -19.9237 -4.97659
